<?xml version="1.0" standalone="no"?>
<!DOCTYPE svg PUBLIC "-//W3C//DTD SVG 20010904//EN"
 "http://www.w3.org/TR/2001/REC-SVG-20010904/DTD/svg10.dtd">
<svg version="1.0" xmlns="http://www.w3.org/2000/svg"
 width="500.000000pt" height="500.000000pt" viewBox="0 0 500.000000 500.000000"
 preserveAspectRatio="xMidYMid meet">

<g transform="translate(0.000000,500.000000) scale(0.100000,-0.100000)"
fill="#000000" stroke="none">
<path d="M2284 4549 c-233 -21 -493 -120 -693 -266 -167 -121 -346 -338 -435
-525 -188 -395 -182 -861 15 -1245 225 -437 656 -726 1137 -762 300 -23 586
43 836 193 l105 63 109 -108 c67 -67 125 -116 153 -128 123 -56 266 5 303 130
20 67 20 77 -4 141 -16 43 -42 75 -134 167 l-113 113 34 52 c93 140 175 344
210 521 24 124 24 386 0 510 -123 627 -631 1088 -1260 1145 -115 11 -136 10
-263 -1z m249 -449 c382 -37 674 -293 784 -685 21 -75 26 -119 30 -262 l6
-173 -677 0 -677 0 6 -22 c16 -52 63 -126 118 -185 70 -75 162 -125 276 -149
l78 -17 7 -135 c3 -74 6 -167 6 -205 l0 -70 -107 6 c-241 13 -459 119 -641
312 -144 153 -222 323 -244 532 -41 395 156 773 497 950 135 70 243 98 425
111 8 1 59 -3 113 -8z m407 -1620 l0 -280 -50 0 -50 0 0 280 0 280 50 0 50 0
0 -280z m-150 -35 l0 -245 -50 0 -50 0 0 245 0 245 50 0 50 0 0 -245z m-150
-40 l0 -205 -50 0 -50 0 0 205 0 205 50 0 50 0 0 -205z"/>
<path d="M2295 3676 c-138 -45 -256 -166 -293 -299 l-10 -37 438 0 439 0 -9
30 c-32 113 -126 222 -238 277 -72 36 -82 38 -181 40 -67 2 -121 -2 -146 -11z"/>
<path d="M870 570 l0 -260 145 0 145 0 0 35 0 35 -105 0 -105 0 0 85 0 85 100
0 100 0 0 30 0 30 -100 0 -100 0 0 75 0 75 105 0 105 0 0 35 0 35 -145 0 -145
0 0 -260z"/>
<path d="M1280 570 l0 -261 38 3 37 3 3 96 3 96 73 5 c122 8 179 59 179 163 0
113 -50 148 -220 153 l-113 4 0 -262z m228 170 c44 -41 40 -106 -8 -141 -14
-10 -51 -22 -82 -25 l-58 -7 0 97 0 96 63 0 c50 0 68 -4 85 -20z"/>
<path d="M1670 795 l0 -35 75 0 75 0 0 -225 0 -225 40 0 40 0 0 225 0 225 80
0 80 0 0 35 0 35 -195 0 -195 0 0 -35z"/>
<path d="M2142 573 l3 -258 38 -3 37 -3 0 260 0 261 -40 0 -40 0 2 -257z"/>
<path d="M2370 570 l0 -260 36 0 36 0 -4 215 c-1 118 -1 215 2 215 3 0 17 -35
32 -78 14 -42 48 -139 74 -215 l48 -138 35 3 35 3 75 212 c42 117 78 213 81
213 3 0 4 -97 2 -215 l-4 -215 41 0 41 0 0 260 0 260 -59 0 -58 0 -73 -205
c-40 -113 -75 -205 -79 -205 -4 0 -26 57 -51 128 -24 70 -56 161 -71 202 l-27
75 -56 3 -56 3 0 -261z"/>
<path d="M3040 570 l0 -260 40 0 40 0 0 260 0 260 -40 0 -40 0 0 -260z"/>
<path d="M3230 795 l0 -35 125 0 c69 0 125 -2 125 -5 0 -3 -44 -70 -97 -148
-154 -226 -163 -240 -163 -269 l0 -28 185 0 185 0 0 35 0 35 -135 0 c-74 0
-135 2 -135 5 0 3 35 56 77 118 42 62 101 147 130 190 35 51 53 87 53 107 l0
30 -175 0 -175 0 0 -35z"/>
<path d="M3690 570 l0 -260 145 0 145 0 0 35 0 35 -105 0 -105 0 0 85 0 85 95
0 95 0 0 30 0 30 -95 0 -95 0 0 75 0 75 105 0 105 0 0 35 0 35 -145 0 -145 0
0 -260z"/>
</g>
</svg>
